<svg width="59" height="61" viewBox="0 0 59 61" fill="none" xmlns="http://www.w3.org/2000/svg">
<path d="M29.5 5.08331C15.93 5.08331 4.91663 16.47 4.91663 30.5C4.91663 44.53 15.93 55.9166 29.5 55.9166C43.07 55.9166 54.0833 44.53 54.0833 30.5C54.0833 16.47 43.07 5.08331 29.5 5.08331ZM29.5 12.7083C33.5808 12.7083 36.875 16.1141 36.875 20.3333C36.875 24.5525 33.5808 27.9583 29.5 27.9583C25.4191 27.9583 22.125 24.5525 22.125 20.3333C22.125 16.1141 25.4191 12.7083 29.5 12.7083ZM29.5 48.8C23.3541 48.8 17.9212 45.5466 14.75 40.6158C14.8237 35.5579 24.5833 32.7875 29.5 32.7875C34.392 32.7875 44.1762 35.5579 44.25 40.6158C41.0787 45.5466 35.6458 48.8 29.5 48.8Z" fill="#4BABB8"/>
</svg>
