<svg width="27" height="28" viewBox="0 0 27 28" fill="none" xmlns="http://www.w3.org/2000/svg">
<path d="M13.5 0.5C6.048 0.5 0 6.548 0 14C0 21.452 6.048 27.5 13.5 27.5C20.952 27.5 27 21.452 27 14C27 6.548 20.952 0.5 13.5 0.5ZM13.5 4.55C15.741 4.55 17.55 6.359 17.55 8.6C17.55 10.841 15.741 12.65 13.5 12.65C11.259 12.65 9.45 10.841 9.45 8.6C9.45 6.359 11.259 4.55 13.5 4.55ZM13.5 23.72C10.125 23.72 7.1415 21.992 5.4 19.373C5.4405 16.6865 10.8 15.215 13.5 15.215C16.1865 15.215 21.5595 16.6865 21.6 19.373C19.8585 21.992 16.875 23.72 13.5 23.72Z" fill="#BDBDBD"/>
</svg>
