<svg width="38" height="38" viewBox="0 0 38 38" fill="none" xmlns="http://www.w3.org/2000/svg">
<circle cx="19" cy="19" r="19" fill="#62B5BF"/>
<g clip-path="url(#clip0_7_8934)">
<path d="M9 14H18.131C18.576 12.2755 20.137 11 22 11C23.863 11 25.424 12.2755 25.869 14H29V16H25.869C25.4245 17.7245 23.8635 19 22 19C20.1365 19 18.576 17.7245 18.131 16H9V14ZM22 17C23.103 17 24 16.103 24 15C24 13.897 23.103 13 22 13C20.897 13 20 13.897 20 15C20 16.103 20.897 17 22 17Z" fill="white"/>
<path d="M9 22H12.131C12.5755 20.2755 14.1365 19 16 19C17.8635 19 19.424 20.2755 19.869 22H29V24H19.869C19.4245 25.7245 17.8635 27 16 27C14.1365 27 12.576 25.7245 12.131 24H9V22ZM16 25C17.103 25 18 24.103 18 23C18 21.897 17.103 21 16 21C14.897 21 14 21.897 14 23C14 24.103 14.897 25 16 25Z" fill="white"/>
</g>
<defs>
<clipPath id="clip0_7_8934">
<rect width="24" height="24" fill="white" transform="matrix(-1 0 0 1 31 7)"/>
</clipPath>
</defs>
</svg>
