<svg width="31" height="31" viewBox="0 0 31 31" fill="none" xmlns="http://www.w3.org/2000/svg">
<path fill-rule="evenodd" clip-rule="evenodd" d="M21.9584 2.58333C22.9861 2.58333 23.9717 2.99159 24.6984 3.71829C25.4251 4.445 25.8334 5.43062 25.8334 6.45833V26.0116C25.8335 26.351 25.7444 26.6845 25.5752 26.9786C25.4059 27.2728 25.1623 27.5173 24.8688 27.6878C24.5753 27.8582 24.2421 27.9485 23.9027 27.9497C23.5633 27.9509 23.2296 27.863 22.9349 27.6946L16.1407 23.8119C15.9456 23.7004 15.7248 23.6418 15.5 23.6418C15.2753 23.6418 15.0545 23.7004 14.8594 23.8119L8.06521 27.6946C7.7705 27.863 7.43674 27.9509 7.09734 27.9497C6.75794 27.9485 6.42481 27.8582 6.1313 27.6878C5.8378 27.5173 5.59421 27.2728 5.42492 26.9786C5.25564 26.6845 5.16659 26.351 5.16671 26.0116V6.45833C5.16671 5.43062 5.57497 4.445 6.30167 3.71829C7.02837 2.99159 8.014 2.58333 9.04171 2.58333H21.9584Z" fill="#BDBDBD"/>
</svg>
