<svg width="34" height="33" viewBox="0 0 34 33" fill="none" xmlns="http://www.w3.org/2000/svg">
<path fill-rule="evenodd" clip-rule="evenodd" d="M24.111 2.75C25.205 2.75 26.2542 3.1846 27.0278 3.95818C27.8014 4.73177 28.236 5.78098 28.236 6.875V27.6898C28.2361 28.0511 28.1413 28.406 27.9611 28.7192C27.7809 29.0323 27.5216 29.2927 27.2091 29.4741C26.8967 29.6555 26.5421 29.7517 26.1808 29.7529C25.8195 29.7542 25.4642 29.6606 25.1505 29.4814L17.918 25.3481C17.7103 25.2295 17.4752 25.1671 17.236 25.1671C16.9968 25.1671 16.7617 25.2295 16.554 25.3481L9.32146 29.4814C9.00774 29.6606 8.65245 29.7542 8.29115 29.7529C7.92986 29.7517 7.57524 29.6555 7.26279 29.4741C6.95035 29.2927 6.69104 29.0323 6.51084 28.7192C6.33063 28.406 6.23584 28.0511 6.23597 27.6898V6.875C6.23597 5.78098 6.67056 4.73177 7.44415 3.95818C8.21774 3.1846 9.26695 2.75 10.361 2.75H24.111Z" fill="white"/>
</svg>
