<svg width="20" height="21" viewBox="0 0 20 21" fill="none" xmlns="http://www.w3.org/2000/svg">
<path d="M4.53961 0.164062C3.15504 0.164062 2.03527 1.38633 2.03527 2.8793C2.03527 2.8793 2.005 17.9238 2.005 18.0469C2.005 19.507 3.07938 20.6965 4.41099 20.7539V20.7621H17.3564V19.9992C16.3577 19.9992 15.5557 19.1215 15.5557 18.0469C15.5557 16.9723 16.3653 16.0945 17.3564 16.0945V16.0781V0.164062H4.53961ZM4.81955 1.64883H5.52319V14.4867H4.81955V1.64883ZM14.8445 18.0387C14.8445 18.8098 15.1471 19.4988 15.6238 19.991H4.50178C3.50307 19.9992 2.69351 19.1133 2.69351 18.0387C2.69351 17.0133 3.43498 16.1766 4.35803 16.1027L15.6465 16.0781C15.1623 16.5703 14.8445 17.2594 14.8445 18.0387Z" fill="#4BABB8"/>
</svg>
