<svg width="27" height="27" viewBox="0 0 27 27" fill="none" xmlns="http://www.w3.org/2000/svg">
<g clip-path="url(#clip0_50_18)">
<path d="M6.75001 22.95H24.3V25.65H6.75001C4.50901 25.65 2.70001 23.841 2.70001 21.6V5.4C2.70001 3.159 4.50901 1.35 6.75001 1.35H24.3V20.25H6.75001C6.00751 20.25 5.40001 20.8575 5.40001 21.6C5.40001 22.3425 6.00751 22.95 6.75001 22.95ZM9.45001 18.225V3.375C9.45001 2.997 9.15301 2.7 8.77501 2.7C8.39701 2.7 8.10001 2.997 8.10001 3.375V18.225C8.10001 18.603 8.39701 18.9 8.77501 18.9C9.15301 18.9 9.45001 18.603 9.45001 18.225Z" fill="#BDBDBD"/>
</g>
<defs>
<clipPath id="clip0_50_18">
<rect width="27" height="27" fill="white"/>
</clipPath>
</defs>
</svg>
