<svg width="30" height="30" viewBox="0 0 30 30" fill="none" xmlns="http://www.w3.org/2000/svg">
<path d="M27.1375 14.1125L15.8875 2.8625C15.7713 2.74534 15.633 2.65235 15.4807 2.58889C15.3284 2.52542 15.165 2.49275 15 2.49275C14.835 2.49275 14.6716 2.52542 14.5193 2.58889C14.3669 2.65235 14.2287 2.74534 14.1125 2.8625L2.86249 14.1125C2.68904 14.2883 2.57155 14.5115 2.52483 14.754C2.47811 14.9965 2.50427 15.2474 2.59999 15.475C2.69377 15.7033 2.85301 15.8987 3.05766 16.0366C3.26231 16.1745 3.50321 16.2488 3.74999 16.25H4.99999V25.375C5.02278 25.9597 5.27627 26.5116 5.70497 26.9098C6.13368 27.3081 6.7027 27.5203 7.28749 27.5H10.625C10.9565 27.5 11.2745 27.3683 11.5089 27.1339C11.7433 26.8995 11.875 26.5815 11.875 26.25V20.125C11.875 19.7935 12.0067 19.4755 12.2411 19.2411C12.4755 19.0067 12.7935 18.875 13.125 18.875H16.875C17.2065 18.875 17.5245 19.0067 17.7589 19.2411C17.9933 19.4755 18.125 19.7935 18.125 20.125V26.25C18.125 26.5815 18.2567 26.8995 18.4911 27.1339C18.7255 27.3683 19.0435 27.5 19.375 27.5H22.7125C23.2973 27.5203 23.8663 27.3081 24.295 26.9098C24.7237 26.5116 24.9772 25.9597 25 25.375V16.25H26.25C26.4968 16.2488 26.7377 16.1745 26.9423 16.0366C27.147 15.8987 27.3062 15.7033 27.4 15.475C27.4957 15.2474 27.5219 14.9965 27.4751 14.754C27.4284 14.5115 27.3109 14.2883 27.1375 14.1125Z" fill="#4BABB8"/>
</svg>
