<svg width="25" height="25" viewBox="0 0 25 25" fill="none" xmlns="http://www.w3.org/2000/svg">
<path fill-rule="evenodd" clip-rule="evenodd" d="M16.5625 4.68751C16.5625 3.12501 15.0187 2.08334 13.8125 2.08334C12.9729 2.08334 12.9072 2.72084 12.7781 3.97918C12.7208 4.53126 12.652 5.20209 12.5 5.98959C12.0979 8.07501 10.7083 10.7396 9.37912 11.5365V17.7083C9.37496 20.0521 10.1562 20.8333 13.5416 20.8333H17.4718C19.7385 20.8333 20.2875 19.3406 20.4916 18.7875L20.5052 18.75C20.6239 18.4313 20.8781 18.1802 21.1697 17.8958C21.4927 17.5771 21.8614 17.2156 22.1354 16.6667C22.4593 16.0177 22.4166 15.4406 22.3781 14.9271C22.3541 14.6156 22.3322 14.3281 22.3958 14.0625C22.4625 13.7813 22.5479 13.5677 22.6302 13.3636C22.7791 12.9927 22.9166 12.649 22.9166 11.9792C22.9166 10.4167 22.1375 9.37709 20.5052 9.37709H16.1458C16.1458 9.37709 16.5625 6.25001 16.5625 4.68751ZM5.72913 10.4167C5.31473 10.4167 4.9173 10.5813 4.62427 10.8743C4.33125 11.1673 4.16663 11.5648 4.16663 11.9792V19.2708C4.16663 19.6852 4.33125 20.0827 4.62427 20.3757C4.9173 20.6687 5.31473 20.8333 5.72913 20.8333C6.14353 20.8333 6.54095 20.6687 6.83398 20.3757C7.12701 20.0827 7.29163 19.6852 7.29163 19.2708V11.9792C7.29163 11.5648 7.12701 11.1673 6.83398 10.8743C6.54095 10.5813 6.14353 10.4167 5.72913 10.4167Z" fill="#4BABB8"/>
</svg>
