<svg width="19" height="25" viewBox="0 0 19 25" fill="none" xmlns="http://www.w3.org/2000/svg">
<path d="M18.5625 15.6313L17.3274 13.5538C17.068 13.0908 16.8334 12.2147 16.8334 11.7016V8.53529C16.8334 5.59424 15.1289 3.05368 12.6711 1.86475C12.0289 0.71336 10.8432 0 9.48462 0C8.13839 0 6.92806 0.73839 6.28581 1.90229C3.87741 3.11626 2.21005 5.63179 2.21005 8.53529V11.7016C2.21005 12.2147 1.97538 13.0908 1.71602 13.5413L0.468584 15.6313C-0.0254479 16.4699 -0.136605 17.396 0.172165 18.247C0.468585 19.0855 1.17258 19.7363 2.08654 20.0492C4.4826 20.8752 7.00216 21.2756 9.52168 21.2756C12.0412 21.2756 14.5608 20.8752 16.9569 20.0617C17.8214 19.7738 18.4884 19.1105 18.8095 18.247C19.1306 17.3835 19.0441 16.4323 18.5625 15.6313Z" fill="#62B5BF"/>
<path d="M12.992 22.5095C12.4733 23.9613 11.1023 25 9.49673 25C8.52102 25 7.55766 24.5995 6.87835 23.8862C6.48312 23.5107 6.18671 23.0101 6.01379 22.497C6.17435 22.522 6.33491 22.5346 6.50783 22.5596C6.79189 22.5971 7.08833 22.6347 7.38475 22.6597C8.08874 22.7223 8.80509 22.7598 9.52144 22.7598C10.2254 22.7598 10.9294 22.7223 11.6211 22.6597C11.8804 22.6347 12.1398 22.6222 12.3868 22.5846C12.5844 22.5596 12.782 22.5346 12.992 22.5095Z" fill="#4BABB8"/>
</svg>
